<svg width="200" height="200" viewBox="0 0 200 200" fill="none" xmlns="http://www.w3.org/2000/svg">
  <!-- Background circle -->
  <circle cx="100" cy="100" r="90" fill="#f0f7f6" />
  
  <!-- Book stack -->
  <rect x="50" y="90" width="100" height="20" rx="2" fill="#5e9f95" />
  <rect x="55" y="70" width="90" height="20" rx="2" fill="#7db5ad" />
  <rect x="60" y="50" width="80" height="20" rx="2" fill="#a3cdc7" />
  
  <!-- Question mark -->
  <path d="M100 30C97.2386 30 95 32.2386 95 35C95 37.7614 97.2386 40 100 40C102.761 40 105 37.7614 105 35C105 32.2386 102.761 30 100 30ZM91 55C91 50.0294 95.0294 46 100 46C104.971 46 109 50.0294 109 55C109 58.5 107 60.5 105.5 62.25C104 64 103 65 103 67V70C103 71.6569 101.657 73 100 73C98.3431 73 97 71.6569 97 70V67C97 62.5 100 60.5 101.5 58.75C103 57 104 56 104 55C104 52.7909 102.209 51 100 51C97.7909 51 96 52.7909 96 55V56C96 57.6569 94.6569 59 93 59C91.3431 59 90 57.6569 90 56V55H91Z" fill="#5e9f95"/>
  
  <!-- Dots -->
  <circle cx="70" y="130" r="4" fill="#5e9f95" />
  <circle cx="90" y="130" r="4" fill="#7db5ad" />
  <circle cx="110" y="130" r="4" fill="#7db5ad" />
  <circle cx="130" y="130" r="4" fill="#5e9f95" />
  
  <!-- Lines -->
  <line x1="50" y1="150" x2="150" y2="150" stroke="#a3cdc7" stroke-width="3" stroke-linecap="round" />
  <line x1="70" y1="160" x2="130" y2="160" stroke="#a3cdc7" stroke-width="3" stroke-linecap="round" />
</svg>